<?xml version="1.0" encoding="utf-8"?>
<!-- Generator: Adobe Illustrator 24.0.3, SVG Export Plug-In . SVG Version: 6.00 Build 0)  -->
<svg version="1.1" id="Layer_1" xmlns="http://www.w3.org/2000/svg" xmlns:xlink="http://www.w3.org/1999/xlink" x="0px" y="0px"
	 viewBox="0 0 92.77 92.71" style="enable-background:new 0 0 92.77 92.71;" xml:space="preserve">
<style type="text/css">
	.st0{fill:#FFFFFF;}
</style>
<g>
	<path d="M45.91,29.96c-0.1-2.64-1.34-6.26-0.07-7.72c2.62-3.02,4.47-8.22,10.38-6.65c1.07,0.28,2.81-0.4,3.7-1.22
		C67.39,6.85,78.36-6.52,88.78,3.71c10.06,9.44-1.15,20.9-9,27.77c-1.85,1.84-2.31,3.68-2.61,6.51c-0.36,3.38-3.95,6.91-6.99,9.28
		c-1.43,1.12-4.86-0.32-8.82-0.76c-7.31,7.32-15.79,15.82-24.28,24.31c-6.21,6.64-12.45,13.02-21.03,16.54
		c-6.05,2.12-7.9,9.3-13.79,2.51c-5.76-4.94,1.2-7.1,2.6-11.73c1.33-6.98,6.22-11.43,10.88-16.08
		c10.5-10.49,21.01-20.97,31.52-31.46C46.8,30.38,46.36,30.17,45.91,29.96z M5.2,86.5c9.8,6.38,44.62-36.77,54.08-44.94
		c-2.57-2.44-5.51-5.23-7.71-7.31C38.28,47.01,25,59.72,11.8,72.51C9.06,76.86,7.66,81.54,5.2,86.5z M73.35,32.02
		c5.67-7.15,21.44-15.38,12.66-25.18c-9.59-8.88-18.34,7.04-25.48,12.31C65.11,23.75,69.02,27.68,73.35,32.02z M54.52,20.19
		c-1.99,1.61-3.84,3.11-5.01,4.06c6.48,6.64,12.63,12.94,17.93,18.36c1.94-1.16,4.03-2.41,5.96-3.56
		C66.65,32.31,60.51,26.18,54.52,20.19z"/>
	<path class="st0" d="M5.2,86.5c2.47-4.96,3.86-9.64,6.6-13.99C25,59.72,38.28,47.01,51.57,34.25c2.2,2.09,5.14,4.88,7.71,7.31
		C49.88,49.65,15.02,92.87,5.2,86.5z"/>
	<path class="st0" d="M73.35,32.02c-4.33-4.35-8.24-8.27-12.82-12.87c7.13-5.27,15.91-21.2,25.48-12.31
		C94.78,16.65,79.03,24.86,73.35,32.02z"/>
	<path class="st0" d="M54.52,20.19c5.99,5.99,12.13,12.12,18.87,18.86c-1.93,1.15-4.02,2.4-5.96,3.56
		c-5.3-5.43-11.45-11.72-17.93-18.36C50.68,23.3,52.52,21.81,54.52,20.19z"/>
</g>
</svg>
